# xmcd
#
# Track frame offsets: 
#        150
#        12685
#        28725
#        49377
#        63319
#        77827
#        96663
#        113003
#        126190
#        142422
#        160647
#        175610
#        192228
#
# Disc length: 2760 seconds
#
# Revision: 0
# Processed by: cddbd v1.5.2PL0 Copyright (c) Steve Scherf et al.
# Submitted via: ExactAudioCopy v0.99pb5
#
DISCID=ba0ac60d
DTITLE=Smashed Can - Smashed Can
DYEAR=2009
DGENRE=Blues
TTITLE0=Two
TTITLE1=The One Thing
TTITLE2=Even When
TTITLE3=Shoot Me Down
TTITLE4=At The Bus Station
TTITLE5=Forget About Me
TTITLE6=The Ballad Of..
TTITLE7=Bloody Mary Blues
TTITLE8=Hunter Or A Prey
TTITLE9=Comes Down To It
TTITLE10=Sloane Square Fountain Blues
TTITLE11=Falls Like Rain
TTITLE12=Not Goin' Down
EXTD=
EXTT0=
EXTT1=
EXTT2=
EXTT3=
EXTT4=
EXTT5=
EXTT6=
EXTT7=
EXTT8=
EXTT9=
EXTT10=
EXTT11=
EXTT12=
PLAYORDER=
